<svg width="108" height="100" viewBox="0 0 108 100" fill="none" xmlns="http://www.w3.org/2000/svg">
<path d="M72 87.5V79.1667C72 74.7464 70.1036 70.5072 66.7279 67.3816C63.3523 64.2559 58.7739 62.5 54 62.5H22.5C17.7261 62.5 13.1477 64.2559 9.77208 67.3816C6.39642 70.5072 4.5 74.7464 4.5 79.1667V87.5M90 33.3333V58.3333M103.5 45.8333H76.5M56.25 29.1667C56.25 38.3714 48.1911 45.8333 38.25 45.8333C28.3089 45.8333 20.25 38.3714 20.25 29.1667C20.25 19.9619 28.3089 12.5 38.25 12.5C48.1911 12.5 56.25 19.9619 56.25 29.1667Z" stroke="#1E1E1E" stroke-width="4" stroke-linecap="round" stroke-linejoin="round"/>
</svg>
